STARTFONT 2.1
COMMENT
COMMENT Converted from OpenType font "neuropolitical rg.otf" by "otf2bdf 3.0".
COMMENT
FONT -FreeType-Neuropolitical Rg-Medium-R-Normal--14-100-100-100-P-92-ISO10646-1
SIZE 10 100 100
FONTBOUNDINGBOX 21 17 -2 -3
STARTPROPERTIES 19
FOUNDRY "FreeType"
FAMILY_NAME "Neuropolitical Rg"
WEIGHT_NAME "Medium"
SLANT "R"
SETWIDTH_NAME "Normal"
ADD_STYLE_NAME ""
PIXEL_SIZE 14
POINT_SIZE 100
RESOLUTION_X 100
RESOLUTION_Y 100
SPACING "P"
AVERAGE_WIDTH 92
CHARSET_REGISTRY "ISO10646"
CHARSET_ENCODING "1"
FONT_ASCENT 13
FONT_DESCENT 3
COPYRIGHT "(c) 1999-2011 Typodermic Fonts. www.typodermic.com/license.html - Design: Ray Larabie Languages & kerning: Chikako Larabie"
_OTF_FONTFILE "neuropolitical rg.otf"
_OTF_PSNAME "NeuropoliticalRg-Regular"
ENDPROPERTIES
CHARS 385
STARTCHAR 0017
ENCODING 23
SWIDTH 432 0
DWIDTH 6 0
BBX 0 0 0 0
BITMAP
ENDCHAR
STARTCHAR 0020
ENCODING 32
SWIDTH 432 0
DWIDTH 6 0
BBX 0 0 0 0
BITMAP
ENDCHAR
STARTCHAR 0021
ENCODING 33
SWIDTH 288 0
DWIDTH 4 0
BBX 2 10 1 0
BITMAP
C0
C0
C0
C0
C0
C0
C0
00
C0
C0
ENDCHAR
STARTCHAR 0022
ENCODING 34
SWIDTH 432 0
DWIDTH 6 0
BBX 4 4 1 6
BITMAP
B0
B0
B0
90
ENDCHAR
STARTCHAR 0023
ENCODING 35
SWIDTH 648 0
DWIDTH 9 0
BBX 9 10 0 0
BITMAP
1300
1200
3200
7F80
3200
2200
FF00
2600
2400
2400
ENDCHAR
STARTCHAR 0024
ENCODING 36
SWIDTH 864 0
DWIDTH 12 0
BBX 10 12 1 -1
BITMAP
0C00
FC00
FC00
CC00
CC00
FF80
7FC0
0CC0
0CC0
FFC0
FF80
0C00
ENDCHAR
STARTCHAR 0025
ENCODING 37
SWIDTH 1080 0
DWIDTH 15 0
BBX 13 10 1 0
BITMAP
F8C0
8880
8980
8B00
FA00
06F8
0D88
0988
1988
30F8
ENDCHAR
STARTCHAR 0026
ENCODING 38
SWIDTH 936 0
DWIDTH 13 0
BBX 11 10 1 0
BITMAP
7F00
7F80
4180
6300
3E00
F860
CE60
C3C0
FFC0
FFE0
ENDCHAR
STARTCHAR 0027
ENCODING 39
SWIDTH 216 0
DWIDTH 3 0
BBX 1 4 1 6
BITMAP
80
80
80
80
ENDCHAR
STARTCHAR 0028
ENCODING 40
SWIDTH 360 0
DWIDTH 5 0
BBX 4 15 1 -3
BITMAP
30
40
C0
C0
C0
C0
C0
C0
C0
C0
C0
C0
C0
40
70
ENDCHAR
STARTCHAR 0029
ENCODING 41
SWIDTH 360 0
DWIDTH 5 0
BBX 3 15 0 -3
BITMAP
C0
20
20
20
20
20
20
20
20
20
20
20
20
20
E0
ENDCHAR
STARTCHAR 002A
ENCODING 42
SWIDTH 576 0
DWIDTH 8 0
BBX 6 7 1 4
BITMAP
30
20
A4
78
30
58
48
ENDCHAR
STARTCHAR 002B
ENCODING 43
SWIDTH 576 0
DWIDTH 8 0
BBX 6 6 1 2
BITMAP
30
30
30
FC
30
30
ENDCHAR
STARTCHAR 002C
ENCODING 44
SWIDTH 216 0
DWIDTH 3 0
BBX 2 3 1 -1
BITMAP
C0
80
80
ENDCHAR
STARTCHAR 002D
ENCODING 45
SWIDTH 432 0
DWIDTH 6 0
BBX 5 2 0 3
BITMAP
F8
F8
ENDCHAR
STARTCHAR 002E
ENCODING 46
SWIDTH 288 0
DWIDTH 4 0
BBX 2 2 1 0
BITMAP
C0
C0
ENDCHAR
STARTCHAR 002F
ENCODING 47
SWIDTH 504 0
DWIDTH 7 0
BBX 7 11 0 -1
BITMAP
06
04
0C
08
18
10
30
20
60
40
C0
ENDCHAR
STARTCHAR 0030
ENCODING 48
SWIDTH 864 0
DWIDTH 12 0
BBX 11 10 1 0
BITMAP
7FC0
FFC0
C0E0
C060
C060
C060
C060
C0E0
FFC0
7FC0
ENDCHAR
STARTCHAR 0031
ENCODING 49
SWIDTH 288 0
DWIDTH 4 0
BBX 2 10 1 0
BITMAP
C0
C0
C0
C0
C0
C0
C0
C0
C0
C0
ENDCHAR
STARTCHAR 0032
ENCODING 50
SWIDTH 936 0
DWIDTH 13 0
BBX 11 10 1 0
BITMAP
07C0
07E0
0060
0060
FFE0
FFC0
C000
C000
FFE0
FFE0
ENDCHAR
STARTCHAR 0033
ENCODING 51
SWIDTH 936 0
DWIDTH 13 0
BBX 11 10 1 0
BITMAP
07C0
07E0
0060
0060
FFC0
FFE0
0060
0060
FFE0
FFC0
ENDCHAR
STARTCHAR 0034
ENCODING 52
SWIDTH 936 0
DWIDTH 13 0
BBX 11 10 1 0
BITMAP
C060
C060
C060
C060
C060
FFE0
FFE0
0060
0060
0060
ENDCHAR
STARTCHAR 0035
ENCODING 53
SWIDTH 936 0
DWIDTH 13 0
BBX 11 10 1 0
BITMAP
FE00
FE00
C000
C000
FFE0
FFE0
0060
0060
FFE0
FFE0
ENDCHAR
STARTCHAR 0036
ENCODING 54
SWIDTH 936 0
DWIDTH 13 0
BBX 11 10 1 0
BITMAP
7C00
FC00
C000
C000
FFE0
FFE0
C060
C060
FFE0
7FE0
ENDCHAR
STARTCHAR 0037
ENCODING 55
SWIDTH 936 0
DWIDTH 13 0
BBX 12 10 0 0
BITMAP
FFF0
FFF0
0060
00C0
01C0
0380
0300
0600
0E00
1C00
ENDCHAR
STARTCHAR 0038
ENCODING 56
SWIDTH 936 0
DWIDTH 13 0
BBX 11 10 1 0
BITMAP
7FC0
FFE0
C060
C060
FFC0
FFE0
C060
C060
FFE0
FFC0
ENDCHAR
STARTCHAR 0039
ENCODING 57
SWIDTH 936 0
DWIDTH 13 0
BBX 11 10 1 0
BITMAP
FFC0
FFE0
C060
C060
FFE0
FFE0
0060
0060
07E0
07C0
ENDCHAR
STARTCHAR 003A
ENCODING 58
SWIDTH 288 0
DWIDTH 4 0
BBX 2 7 1 0
BITMAP
C0
C0
00
00
00
C0
C0
ENDCHAR
STARTCHAR 003B
ENCODING 59
SWIDTH 288 0
DWIDTH 4 0
BBX 2 8 1 -1
BITMAP
C0
C0
00
00
00
C0
80
80
ENDCHAR
STARTCHAR 003C
ENCODING 60
SWIDTH 576 0
DWIDTH 8 0
BBX 6 9 1 0
BITMAP
04
0C
38
E0
C0
E0
38
0C
04
ENDCHAR
STARTCHAR 003D
ENCODING 61
SWIDTH 576 0
DWIDTH 8 0
BBX 6 4 1 3
BITMAP
FC
00
00
FC
ENDCHAR
STARTCHAR 003E
ENCODING 62
SWIDTH 576 0
DWIDTH 8 0
BBX 6 9 1 0
BITMAP
80
C0
70
1C
04
1C
70
C0
80
ENDCHAR
STARTCHAR 003F
ENCODING 63
SWIDTH 576 0
DWIDTH 8 0
BBX 7 10 1 0
BITMAP
3C
3E
06
06
3E
FC
C0
00
C0
C0
ENDCHAR
STARTCHAR 0040
ENCODING 64
SWIDTH 720 0
DWIDTH 10 0
BBX 9 12 1 -3
BITMAP
FF00
C180
8180
9F80
9980
9180
9980
9F00
8000
8000
C000
F800
ENDCHAR
STARTCHAR 0041
ENCODING 65
SWIDTH 1008 0
DWIDTH 14 0
BBX 14 10 0 0
BITMAP
0300
0780
07C0
0CC0
1C60
1870
3FF0
3FF8
6018
E00C
ENDCHAR
STARTCHAR 0042
ENCODING 66
SWIDTH 864 0
DWIDTH 12 0
BBX 11 10 1 0
BITMAP
FFC0
FFE0
C060
C060
FFC0
FFE0
C060
C060
FFE0
FFC0
ENDCHAR
STARTCHAR 0043
ENCODING 67
SWIDTH 792 0
DWIDTH 11 0
BBX 10 10 1 0
BITMAP
7FC0
FFC0
C000
C000
C000
C000
C000
C000
FFC0
7FC0
ENDCHAR
STARTCHAR 0044
ENCODING 68
SWIDTH 936 0
DWIDTH 13 0
BBX 11 10 1 0
BITMAP
FFC0
FFE0
C060
C060
C060
C060
C060
C060
FFE0
FFC0
ENDCHAR
STARTCHAR 0045
ENCODING 69
SWIDTH 864 0
DWIDTH 12 0
BBX 10 10 1 0
BITMAP
7C00
FC00
C000
C000
FFC0
FFC0
C000
C000
FFC0
7FC0
ENDCHAR
STARTCHAR 0046
ENCODING 70
SWIDTH 792 0
DWIDTH 11 0
BBX 10 10 1 0
BITMAP
7C00
FC00
C000
C000
FFC0
FFC0
C000
C000
C000
C000
ENDCHAR
STARTCHAR 0047
ENCODING 71
SWIDTH 864 0
DWIDTH 12 0
BBX 11 10 1 0
BITMAP
7C00
FC00
C000
C000
C060
C060
C060
C0E0
FFC0
7FC0
ENDCHAR
STARTCHAR 0048
ENCODING 72
SWIDTH 936 0
DWIDTH 13 0
BBX 11 10 1 0
BITMAP
C060
C060
C060
C060
FFE0
FFE0
C060
C060
C060
C060
ENDCHAR
STARTCHAR 0049
ENCODING 73
SWIDTH 288 0
DWIDTH 4 0
BBX 2 10 1 0
BITMAP
C0
C0
C0
C0
C0
C0
C0
C0
C0
C0
ENDCHAR
STARTCHAR 004A
ENCODING 74
SWIDTH 504 0
DWIDTH 7 0
BBX 6 10 0 0
BITMAP
0C
0C
0C
0C
0C
0C
0C
0C
FC
F8
ENDCHAR
STARTCHAR 004B
ENCODING 75
SWIDTH 792 0
DWIDTH 11 0
BBX 10 10 1 0
BITMAP
C180
C700
CE00
DC00
F800
F800
DC00
CE00
C300
C1C0
ENDCHAR
STARTCHAR 004C
ENCODING 76
SWIDTH 720 0
DWIDTH 10 0
BBX 9 10 1 0
BITMAP
C000
C000
C000
C000
C000
C000
C000
C000
FF80
7F80
ENDCHAR
STARTCHAR 004D
ENCODING 77
SWIDTH 1224 0
DWIDTH 17 0
BBX 15 10 1 0
BITMAP
C006
E00E
E01E
F03E
F836
DC66
CCE6
C7C6
C786
C306
ENDCHAR
STARTCHAR 004E
ENCODING 78
SWIDTH 936 0
DWIDTH 13 0
BBX 11 10 1 0
BITMAP
C060
E060
F060
F860
DC60
CE60
C760
C3E0
C1E0
C0E0
ENDCHAR
STARTCHAR 004F
ENCODING 79
SWIDTH 864 0
DWIDTH 12 0
BBX 11 10 1 0
BITMAP
7F80
FFC0
C0E0
C0E0
C0E0
C0E0
C0E0
C0E0
FFC0
7F80
ENDCHAR
STARTCHAR 0050
ENCODING 80
SWIDTH 864 0
DWIDTH 12 0
BBX 11 10 1 0
BITMAP
FFC0
FFE0
C060
C060
C060
FFE0
FFC0
C000
C000
C000
ENDCHAR
STARTCHAR 0051
ENCODING 81
SWIDTH 864 0
DWIDTH 12 0
BBX 11 11 1 -1
BITMAP
7F80
FFC0
C0E0
C0E0
C0E0
C0E0
C0E0
C0E0
FFC0
7FC0
00E0
ENDCHAR
STARTCHAR 0052
ENCODING 82
SWIDTH 936 0
DWIDTH 13 0
BBX 11 10 1 0
BITMAP
FFC0
FFE0
C060
C060
C060
FFE0
FF80
CE00
C780
C1C0
ENDCHAR
STARTCHAR 0053
ENCODING 83
SWIDTH 792 0
DWIDTH 11 0
BBX 10 10 1 0
BITMAP
F800
F800
C000
C000
FF80
7FC0
00C0
00C0
FFC0
FF80
ENDCHAR
STARTCHAR 0054
ENCODING 84
SWIDTH 792 0
DWIDTH 11 0
BBX 10 10 0 0
BITMAP
FFC0
FFC0
0C00
0C00
0C00
0C00
0C00
0C00
0C00
0C00
ENDCHAR
STARTCHAR 0055
ENCODING 85
SWIDTH 864 0
DWIDTH 12 0
BBX 11 10 1 0
BITMAP
C0E0
C0E0
C0E0
C0E0
C0E0
C0E0
C0E0
C0E0
FFC0
7F80
ENDCHAR
STARTCHAR 0056
ENCODING 86
SWIDTH 1008 0
DWIDTH 14 0
BBX 14 10 0 0
BITMAP
E01C
7018
3038
3830
1860
1CE0
0CC0
07C0
0780
0300
ENDCHAR
STARTCHAR 0057
ENCODING 87
SWIDTH 1368 0
DWIDTH 19 0
BBX 18 10 0 0
BITMAP
E0E0C0
60E0C0
61E180
31B180
33B380
3B1B00
1B1B00
1E1E00
0E0E00
0C0C00
ENDCHAR
STARTCHAR 0058
ENCODING 88
SWIDTH 1008 0
DWIDTH 14 0
BBX 12 10 1 0
BITMAP
E070
70E0
39C0
1F80
0F00
0F00
1F80
39C0
70E0
E070
ENDCHAR
STARTCHAR 0059
ENCODING 89
SWIDTH 936 0
DWIDTH 13 0
BBX 12 10 1 0
BITMAP
C070
60E0
39C0
1F80
0F00
0600
0600
0600
0600
0600
ENDCHAR
STARTCHAR 005A
ENCODING 90
SWIDTH 864 0
DWIDTH 12 0
BBX 10 10 1 0
BITMAP
FFC0
FFC0
0380
0700
0E00
1C00
3800
7000
FFC0
FFC0
ENDCHAR
STARTCHAR 005B
ENCODING 91
SWIDTH 360 0
DWIDTH 5 0
BBX 4 15 1 -3
BITMAP
F0
C0
C0
C0
C0
C0
C0
C0
C0
C0
C0
C0
C0
C0
F0
ENDCHAR
STARTCHAR 005C
ENCODING 92
SWIDTH 504 0
DWIDTH 7 0
BBX 7 11 0 -1
BITMAP
C0
40
60
20
30
10
18
08
0C
04
06
ENDCHAR
STARTCHAR 005D
ENCODING 93
SWIDTH 360 0
DWIDTH 5 0
BBX 3 15 0 -3
BITMAP
E0
20
20
20
20
20
20
20
20
20
20
20
20
20
E0
ENDCHAR
STARTCHAR 005E
ENCODING 94
SWIDTH 648 0
DWIDTH 9 0
BBX 7 7 1 3
BITMAP
30
38
38
6C
4C
C4
86
ENDCHAR
STARTCHAR 005F
ENCODING 95
SWIDTH 648 0
DWIDTH 9 0
BBX 9 1 0 -2
BITMAP
FF80
ENDCHAR
STARTCHAR 0060
ENCODING 96
SWIDTH 432 0
DWIDTH 6 0
BBX 3 3 1 9
BITMAP
C0
60
20
ENDCHAR
STARTCHAR 0061
ENCODING 97
SWIDTH 864 0
DWIDTH 12 0
BBX 10 7 1 0
BITMAP
0F80
00C0
FFC0
C0C0
C0C0
C1C0
FF80
ENDCHAR
STARTCHAR 0062
ENCODING 98
SWIDTH 792 0
DWIDTH 11 0
BBX 10 10 1 0
BITMAP
C000
C000
FF00
FF80
C1C0
C0C0
C0C0
C1C0
FF80
7F80
ENDCHAR
STARTCHAR 0063
ENCODING 99
SWIDTH 792 0
DWIDTH 11 0
BBX 9 8 1 0
BITMAP
7F80
FF80
C000
C000
C000
C000
FF80
7F80
ENDCHAR
STARTCHAR 0064
ENCODING 100
SWIDTH 792 0
DWIDTH 11 0
BBX 10 10 1 0
BITMAP
00C0
00C0
7FC0
FFC0
C0C0
C0C0
C0C0
C1C0
FF80
7F80
ENDCHAR
STARTCHAR 0065
ENCODING 101
SWIDTH 792 0
DWIDTH 11 0
BBX 10 8 1 0
BITMAP
3F00
FF80
C1C0
C1C0
FFC0
C000
FC00
7C00
ENDCHAR
STARTCHAR 0066
ENCODING 102
SWIDTH 432 0
DWIDTH 6 0
BBX 5 10 1 0
BITMAP
F8
C0
F8
F8
C0
C0
C0
C0
C0
C0
ENDCHAR
STARTCHAR 0067
ENCODING 103
SWIDTH 792 0
DWIDTH 11 0
BBX 10 11 1 -3
BITMAP
7F00
FF80
C1C0
C0C0
C0C0
FFC0
7FC0
00C0
00C0
0F80
0F80
ENDCHAR
STARTCHAR 0068
ENCODING 104
SWIDTH 792 0
DWIDTH 11 0
BBX 10 10 1 0
BITMAP
C000
C000
FF00
FF80
C1C0
C0C0
C0C0
C0C0
C0C0
C0C0
ENDCHAR
STARTCHAR 0069
ENCODING 105
SWIDTH 288 0
DWIDTH 4 0
BBX 2 10 1 0
BITMAP
C0
C0
00
C0
C0
C0
C0
C0
C0
C0
ENDCHAR
STARTCHAR 006A
ENCODING 106
SWIDTH 288 0
DWIDTH 4 0
BBX 4 13 -1 -3
BITMAP
30
30
00
30
30
30
30
30
30
30
30
F0
E0
ENDCHAR
STARTCHAR 006B
ENCODING 107
SWIDTH 720 0
DWIDTH 10 0
BBX 9 10 1 0
BITMAP
C000
C000
C380
C700
CC00
F800
F800
DC00
CE00
C300
ENDCHAR
STARTCHAR 006C
ENCODING 108
SWIDTH 288 0
DWIDTH 4 0
BBX 2 10 1 0
BITMAP
C0
C0
C0
C0
C0
C0
C0
C0
C0
C0
ENDCHAR
STARTCHAR 006D
ENCODING 109
SWIDTH 1080 0
DWIDTH 15 0
BBX 14 8 1 0
BITMAP
7CF8
FFF8
C30C
C30C
C30C
C30C
C30C
C30C
ENDCHAR
STARTCHAR 006E
ENCODING 110
SWIDTH 792 0
DWIDTH 11 0
BBX 10 8 1 0
BITMAP
7F00
FF80
C180
C1C0
C1C0
C1C0
C1C0
C1C0
ENDCHAR
STARTCHAR 006F
ENCODING 111
SWIDTH 792 0
DWIDTH 11 0
BBX 9 8 1 0
BITMAP
7F00
FF80
C180
C180
C180
C180
FF80
7F00
ENDCHAR
STARTCHAR 0070
ENCODING 112
SWIDTH 792 0
DWIDTH 11 0
BBX 10 11 1 -3
BITMAP
7F00
FF80
C1C0
C0C0
C0C0
C1C0
FF80
FF80
C000
C000
C000
ENDCHAR
STARTCHAR 0071
ENCODING 113
SWIDTH 792 0
DWIDTH 11 0
BBX 10 11 1 -3
BITMAP
7F00
FF80
C1C0
C0C0
C0C0
C0C0
FFC0
7FC0
00C0
00C0
00C0
ENDCHAR
STARTCHAR 0072
ENCODING 114
SWIDTH 432 0
DWIDTH 6 0
BBX 5 8 1 0
BITMAP
38
F8
C0
C0
C0
C0
C0
C0
ENDCHAR
STARTCHAR 0073
ENCODING 115
SWIDTH 720 0
DWIDTH 10 0
BBX 9 8 1 0
BITMAP
7800
F800
C000
C000
FF00
0180
FF80
FF00
ENDCHAR
STARTCHAR 0074
ENCODING 116
SWIDTH 432 0
DWIDTH 6 0
BBX 6 10 0 0
BITMAP
60
60
FC
FC
60
60
60
60
60
60
ENDCHAR
STARTCHAR 0075
ENCODING 117
SWIDTH 792 0
DWIDTH 11 0
BBX 9 8 1 0
BITMAP
C180
C180
C180
C180
C180
C180
FF80
7F00
ENDCHAR
STARTCHAR 0076
ENCODING 118
SWIDTH 936 0
DWIDTH 13 0
BBX 13 8 0 0
BITMAP
E038
7070
3060
38C0
1DC0
0D80
0700
0700
ENDCHAR
STARTCHAR 0077
ENCODING 119
SWIDTH 1080 0
DWIDTH 15 0
BBX 15 8 0 0
BITMAP
C186
6386
63CC
36CC
3658
3C78
1C70
1830
ENDCHAR
STARTCHAR 0078
ENCODING 120
SWIDTH 720 0
DWIDTH 10 0
BBX 9 8 1 0
BITMAP
C380
6700
3E00
1C00
3C00
7600
E700
C380
ENDCHAR
STARTCHAR 0079
ENCODING 121
SWIDTH 864 0
DWIDTH 12 0
BBX 10 11 1 -3
BITMAP
C0C0
C0C0
C0C0
C0C0
C0C0
FFC0
7FC0
00C0
00C0
0FC0
0F80
ENDCHAR
STARTCHAR 007A
ENCODING 122
SWIDTH 720 0
DWIDTH 10 0
BBX 8 8 1 0
BITMAP
FE
FF
06
1C
38
70
FF
FF
ENDCHAR
STARTCHAR 007B
ENCODING 123
SWIDTH 360 0
DWIDTH 5 0
BBX 4 15 0 -3
BITMAP
30
20
20
20
20
20
20
E0
60
20
20
20
20
20
30
ENDCHAR
STARTCHAR 007C
ENCODING 124
SWIDTH 288 0
DWIDTH 4 0
BBX 2 15 1 -3
BITMAP
C0
C0
C0
C0
C0
C0
C0
C0
C0
C0
C0
C0
C0
C0
C0
ENDCHAR
STARTCHAR 007D
ENCODING 125
SWIDTH 360 0
DWIDTH 5 0
BBX 4 15 0 -3
BITMAP
E0
20
20
20
20
20
20
30
20
20
20
20
20
20
E0
ENDCHAR
STARTCHAR 007E
ENCODING 126
SWIDTH 576 0
DWIDTH 8 0
BBX 6 2 1 4
BITMAP
E4
9C
ENDCHAR
STARTCHAR 00A0
ENCODING 160
SWIDTH 432 0
DWIDTH 6 0
BBX 0 0 0 0
BITMAP
ENDCHAR
STARTCHAR 00A1
ENCODING 161
SWIDTH 288 0
DWIDTH 4 0
BBX 2 10 1 0
BITMAP
C0
C0
00
C0
C0
C0
C0
C0
C0
C0
ENDCHAR
STARTCHAR 00A2
ENCODING 162
SWIDTH 720 0
DWIDTH 10 0
BBX 9 10 1 0
BITMAP
0C00
7F80
FF80
CC00
CC00
CC00
CC00
FF80
7F80
0C00
ENDCHAR
STARTCHAR 00A3
ENCODING 163
SWIDTH 864 0
DWIDTH 12 0
BBX 11 10 0 0
BITMAP
1E00
3E00
3000
3000
3FE0
3FE0
3000
3000
FFE0
FFE0
ENDCHAR
STARTCHAR 00A4
ENCODING 164
SWIDTH 720 0
DWIDTH 10 0
BBX 8 9 1 0
BITMAP
81
C3
7E
66
66
66
7E
C3
81
ENDCHAR
STARTCHAR 00A5
ENCODING 165
SWIDTH 864 0
DWIDTH 12 0
BBX 11 10 1 0
BITMAP
C0E0
6180
3300
1E00
0C00
7FC0
0C00
7FC0
0C00
0C00
ENDCHAR
STARTCHAR 00A6
ENCODING 166
SWIDTH 288 0
DWIDTH 4 0
BBX 2 15 1 -3
BITMAP
C0
C0
C0
C0
C0
C0
00
00
00
C0
C0
C0
C0
C0
C0
ENDCHAR
STARTCHAR 00A7
ENCODING 167
SWIDTH 720 0
DWIDTH 10 0
BBX 8 13 1 -3
BITMAP
FC
FC
80
80
FE
FF
83
FF
FF
03
03
FF
FE
ENDCHAR
STARTCHAR 00A8
ENCODING 168
SWIDTH 504 0
DWIDTH 7 0
BBX 5 2 1 8
BITMAP
D8
D8
ENDCHAR
STARTCHAR 00A9
ENCODING 169
SWIDTH 864 0
DWIDTH 12 0
BBX 10 10 1 0
BITMAP
7F80
8040
9E40
A040
A040
A040
9E40
8040
8040
7F80
ENDCHAR
STARTCHAR 00AA
ENCODING 170
SWIDTH 504 0
DWIDTH 7 0
BBX 5 5 1 4
BITMAP
38
08
F8
88
F8
ENDCHAR
STARTCHAR 00AB
ENCODING 171
SWIDTH 576 0
DWIDTH 8 0
BBX 8 7 0 1
BITMAP
11
33
66
CC
66
33
11
ENDCHAR
STARTCHAR 00AC
ENCODING 172
SWIDTH 576 0
DWIDTH 8 0
BBX 6 6 1 0
BITMAP
FC
04
04
04
04
04
ENDCHAR
STARTCHAR 00AE
ENCODING 174
SWIDTH 864 0
DWIDTH 12 0
BBX 10 10 1 0
BITMAP
7F80
8040
BE40
A140
A140
BE40
A440
8240
8040
7F80
ENDCHAR
STARTCHAR 00AF
ENCODING 175
SWIDTH 648 0
DWIDTH 9 0
BBX 7 1 1 9
BITMAP
FE
ENDCHAR
STARTCHAR 00B0
ENCODING 176
SWIDTH 432 0
DWIDTH 6 0
BBX 6 5 0 5
BITMAP
78
CC
CC
CC
78
ENDCHAR
STARTCHAR 00B1
ENCODING 177
SWIDTH 576 0
DWIDTH 8 0
BBX 6 8 1 0
BITMAP
30
30
FC
30
30
30
00
FC
ENDCHAR
STARTCHAR 00B2
ENCODING 178
SWIDTH 504 0
DWIDTH 7 0
BBX 5 5 1 5
BITMAP
38
08
F8
80
F8
ENDCHAR
STARTCHAR 00B3
ENCODING 179
SWIDTH 504 0
DWIDTH 7 0
BBX 6 5 0 5
BITMAP
1C
04
7C
04
FC
ENDCHAR
STARTCHAR 00B4
ENCODING 180
SWIDTH 432 0
DWIDTH 6 0
BBX 3 3 1 9
BITMAP
60
60
C0
ENDCHAR
STARTCHAR 00B6
ENCODING 182
SWIDTH 864 0
DWIDTH 12 0
BBX 11 13 0 -3
BITMAP
7FE0
FFE0
C620
C620
FE20
7E20
0620
0620
0620
0620
0620
0620
0620
ENDCHAR
STARTCHAR 00B7
ENCODING 183
SWIDTH 288 0
DWIDTH 4 0
BBX 2 2 1 4
BITMAP
C0
C0
ENDCHAR
STARTCHAR 00B8
ENCODING 184
SWIDTH 288 0
DWIDTH 4 0
BBX 2 3 1 -3
BITMAP
C0
C0
80
ENDCHAR
STARTCHAR 00B9
ENCODING 185
SWIDTH 216 0
DWIDTH 3 0
BBX 1 5 1 5
BITMAP
80
80
80
80
80
ENDCHAR
STARTCHAR 00BA
ENCODING 186
SWIDTH 504 0
DWIDTH 7 0
BBX 5 4 1 4
BITMAP
F8
88
88
F8
ENDCHAR
STARTCHAR 00BB
ENCODING 187
SWIDTH 576 0
DWIDTH 8 0
BBX 8 7 0 1
BITMAP
88
CC
66
33
66
CC
88
ENDCHAR
STARTCHAR 00BC
ENCODING 188
SWIDTH 936 0
DWIDTH 13 0
BBX 11 10 1 0
BITMAP
C300
C600
C400
CC00
D800
1620
3620
6620
47E0
C020
ENDCHAR
STARTCHAR 00BD
ENCODING 189
SWIDTH 864 0
DWIDTH 12 0
BBX 10 10 1 0
BITMAP
C300
C600
C400
CC00
D800
11C0
3040
6FC0
4800
CFC0
ENDCHAR
STARTCHAR 00BE
ENCODING 190
SWIDTH 1080 0
DWIDTH 15 0
BBX 14 10 1 0
BITMAP
3840
08C0
F980
0900
FB00
068C
048C
0C8C
18FC
100C
ENDCHAR
STARTCHAR 00BF
ENCODING 191
SWIDTH 576 0
DWIDTH 8 0
BBX 8 10 0 0
BITMAP
07
07
00
03
7E
FC
C0
C0
78
78
ENDCHAR
STARTCHAR 00C0
ENCODING 192
SWIDTH 1008 0
DWIDTH 14 0
BBX 14 14 0 0
BITMAP
0600
0300
0300
0000
0300
0780
07C0
0CC0
1C60
1870
3FF0
3FF8
6018
E00C
ENDCHAR
STARTCHAR 00C1
ENCODING 193
SWIDTH 1008 0
DWIDTH 14 0
BBX 14 14 0 0
BITMAP
0180
0180
0300
0000
0300
0780
07C0
0CC0
1C60
1870
3FF0
3FF8
6018
E00C
ENDCHAR
STARTCHAR 00C2
ENCODING 194
SWIDTH 1008 0
DWIDTH 14 0
BBX 14 14 0 0
BITMAP
0300
0780
06C0
0CC0
0300
0780
07C0
0CC0
1C60
1870
3FF0
3FF8
6018
E00C
ENDCHAR
STARTCHAR 00C3
ENCODING 195
SWIDTH 1008 0
DWIDTH 14 0
BBX 14 13 0 0
BITMAP
1FE0
0000
0000
0300
0780
07C0
0CC0
1C60
1870
3FF0
3FF8
6018
E00C
ENDCHAR
STARTCHAR 00C4
ENCODING 196
SWIDTH 1008 0
DWIDTH 14 0
BBX 14 12 0 0
BITMAP
0CC0
0CC0
0300
0780
07C0
0CC0
1C60
1870
3FF0
3FF8
6018
E00C
ENDCHAR
STARTCHAR 00C5
ENCODING 197
SWIDTH 1008 0
DWIDTH 14 0
BBX 14 14 0 0
BITMAP
0780
0440
0440
0780
0300
0780
07C0
0CC0
1C60
1870
3FF0
3FF8
6018
E00C
ENDCHAR
STARTCHAR 00C6
ENCODING 198
SWIDTH 1368 0
DWIDTH 19 0
BBX 18 10 0 0
BITMAP
03FC00
07FC00
06C000
0CC000
1CFFC0
18FFC0
3FC000
3FC000
70FFC0
E07FC0
ENDCHAR
STARTCHAR 00C7
ENCODING 199
SWIDTH 792 0
DWIDTH 11 0
BBX 10 13 1 -3
BITMAP
7FC0
FFC0
C000
C000
C000
C000
C000
C000
FFC0
7FC0
0C00
0C00
0800
ENDCHAR
STARTCHAR 00C8
ENCODING 200
SWIDTH 864 0
DWIDTH 12 0
BBX 10 14 1 0
BITMAP
3800
1800
0C00
0000
7C00
FC00
C000
C000
FFC0
FFC0
C000
C000
FFC0
7FC0
ENDCHAR
STARTCHAR 00C9
ENCODING 201
SWIDTH 864 0
DWIDTH 12 0
BBX 10 14 1 0
BITMAP
0600
0C00
0C00
0000
7C00
FC00
C000
C000
FFC0
FFC0
C000
C000
FFC0
7FC0
ENDCHAR
STARTCHAR 00CA
ENCODING 202
SWIDTH 864 0
DWIDTH 12 0
BBX 10 14 1 0
BITMAP
0C00
1E00
1B00
3300
7C00
FC00
C000
C000
FFC0
FFC0
C000
C000
FFC0
7FC0
ENDCHAR
STARTCHAR 00CB
ENCODING 203
SWIDTH 864 0
DWIDTH 12 0
BBX 10 12 1 0
BITMAP
3300
3300
7C00
FC00
C000
C000
FFC0
FFC0
C000
C000
FFC0
7FC0
ENDCHAR
STARTCHAR 00CC
ENCODING 204
SWIDTH 288 0
DWIDTH 4 0
BBX 3 14 0 0
BITMAP
C0
C0
60
00
60
60
60
60
60
60
60
60
60
60
ENDCHAR
STARTCHAR 00CD
ENCODING 205
SWIDTH 288 0
DWIDTH 4 0
BBX 3 14 1 0
BITMAP
60
C0
C0
00
C0
C0
C0
C0
C0
C0
C0
C0
C0
C0
ENDCHAR
STARTCHAR 00CE
ENCODING 206
SWIDTH 288 0
DWIDTH 4 0
BBX 6 14 -1 0
BITMAP
30
78
D8
CC
30
30
30
30
30
30
30
30
30
30
ENDCHAR
STARTCHAR 00CF
ENCODING 207
SWIDTH 288 0
DWIDTH 4 0
BBX 6 12 -1 0
BITMAP
CC
CC
30
30
30
30
30
30
30
30
30
30
ENDCHAR
STARTCHAR 00D0
ENCODING 208
SWIDTH 936 0
DWIDTH 13 0
BBX 12 10 0 0
BITMAP
7FE0
7FF0
6030
6030
FE30
FE30
6030
6030
7FF0
7FE0
ENDCHAR
STARTCHAR 00D1
ENCODING 209
SWIDTH 936 0
DWIDTH 13 0
BBX 11 13 1 0
BITMAP
3F80
0000
0000
C060
E060
F060
F860
DC60
CE60
C760
C3E0
C1E0
C0E0
ENDCHAR
STARTCHAR 00D2
ENCODING 210
SWIDTH 864 0
DWIDTH 12 0
BBX 11 14 1 0
BITMAP
1800
0C00
0C00
0000
7F80
FFC0
C0E0
C0E0
C0E0
C0E0
C0E0
C0E0
FFC0
7F80
ENDCHAR
STARTCHAR 00D3
ENCODING 211
SWIDTH 864 0
DWIDTH 12 0
BBX 11 14 1 0
BITMAP
0600
0600
0C00
0000
7F80
FFC0
C0E0
C0E0
C0E0
C0E0
C0E0
C0E0
FFC0
7F80
ENDCHAR
STARTCHAR 00D4
ENCODING 212
SWIDTH 864 0
DWIDTH 12 0
BBX 11 14 1 0
BITMAP
0C00
1E00
1B00
3300
7F80
FFC0
C0E0
C0E0
C0E0
C0E0
C0E0
C0E0
FFC0
7F80
ENDCHAR
STARTCHAR 00D5
ENCODING 213
SWIDTH 864 0
DWIDTH 12 0
BBX 11 13 1 0
BITMAP
7F80
0000
0000
7F80
FFC0
C0E0
C0E0
C0E0
C0E0
C0E0
C0E0
FFC0
7F80
ENDCHAR
STARTCHAR 00D6
ENCODING 214
SWIDTH 864 0
DWIDTH 12 0
BBX 11 12 1 0
BITMAP
3300
3300
7F80
FFC0
C0E0
C0E0
C0E0
C0E0
C0E0
C0E0
FFC0
7F80
ENDCHAR
STARTCHAR 00D7
ENCODING 215
SWIDTH 576 0
DWIDTH 8 0
BBX 4 6 2 2
BITMAP
90
D0
70
70
D0
90
ENDCHAR
STARTCHAR 00D8
ENCODING 216
SWIDTH 864 0
DWIDTH 12 0
BBX 11 12 1 -1
BITMAP
00C0
7F80
FFC0
C3E0
C6E0
CEE0
CCE0
D8E0
F8E0
FFC0
7F80
C000
ENDCHAR
STARTCHAR 00D9
ENCODING 217
SWIDTH 864 0
DWIDTH 12 0
BBX 11 14 1 0
BITMAP
1800
0C00
0C00
0000
C0E0
C0E0
C0E0
C0E0
C0E0
C0E0
C0E0
C0E0
FFC0
7F80
ENDCHAR
STARTCHAR 00DA
ENCODING 218
SWIDTH 864 0
DWIDTH 12 0
BBX 11 14 1 0
BITMAP
0600
0600
0C00
0000
C0E0
C0E0
C0E0
C0E0
C0E0
C0E0
C0E0
C0E0
FFC0
7F80
ENDCHAR
STARTCHAR 00DB
ENCODING 219
SWIDTH 864 0
DWIDTH 12 0
BBX 11 14 1 0
BITMAP
0C00
1E00
1B00
3300
C0E0
C0E0
C0E0
C0E0
C0E0
C0E0
C0E0
C0E0
FFC0
7F80
ENDCHAR
STARTCHAR 00DC
ENCODING 220
SWIDTH 864 0
DWIDTH 12 0
BBX 11 12 1 0
BITMAP
3300
3300
C0E0
C0E0
C0E0
C0E0
C0E0
C0E0
C0E0
C0E0
FFC0
7F80
ENDCHAR
STARTCHAR 00DD
ENCODING 221
SWIDTH 936 0
DWIDTH 13 0
BBX 12 14 1 0
BITMAP
0300
0600
0400
0000
C070
60E0
39C0
1F80
0F00
0600
0600
0600
0600
0600
ENDCHAR
STARTCHAR 00DE
ENCODING 222
SWIDTH 864 0
DWIDTH 12 0
BBX 11 10 1 0
BITMAP
C000
FF80
FFE0
C060
C060
C060
C060
FFE0
FF80
C000
ENDCHAR
STARTCHAR 00DF
ENCODING 223
SWIDTH 936 0
DWIDTH 13 0
BBX 12 10 1 0
BITMAP
FC00
FE00
C600
C780
C7E0
C070
C030
C070
CFE0
CFE0
ENDCHAR
STARTCHAR 00E0
ENCODING 224
SWIDTH 864 0
DWIDTH 12 0
BBX 10 12 1 0
BITMAP
1800
0C00
0C00
0000
0000
0F80
00C0
FFC0
C0C0
C0C0
C1C0
FF80
ENDCHAR
STARTCHAR 00E1
ENCODING 225
SWIDTH 864 0
DWIDTH 12 0
BBX 10 12 1 0
BITMAP
0700
0600
0C00
0000
0000
0F80
00C0
FFC0
C0C0
C0C0
C1C0
FF80
ENDCHAR
STARTCHAR 00E2
ENCODING 226
SWIDTH 864 0
DWIDTH 12 0
BBX 10 12 1 0
BITMAP
0C00
1E00
1B00
3300
0000
0F80
00C0
FFC0
C0C0
C0C0
C1C0
FF80
ENDCHAR
STARTCHAR 00E3
ENCODING 227
SWIDTH 864 0
DWIDTH 12 0
BBX 10 10 1 0
BITMAP
3F80
0000
0000
0F80
00C0
FFC0
C0C0
C0C0
C1C0
FF80
ENDCHAR
STARTCHAR 00E4
ENCODING 228
SWIDTH 864 0
DWIDTH 12 0
BBX 10 10 1 0
BITMAP
3300
3300
0000
0F80
00C0
FFC0
C0C0
C0C0
C1C0
FF80
ENDCHAR
STARTCHAR 00E5
ENCODING 229
SWIDTH 864 0
DWIDTH 12 0
BBX 10 12 1 0
BITMAP
1E00
1100
1100
1E00
0000
0F80
00C0
FFC0
C0C0
C0C0
C1C0
FF80
ENDCHAR
STARTCHAR 00E6
ENCODING 230
SWIDTH 1368 0
DWIDTH 19 0
BBX 17 8 1 0
BITMAP
0F3F00
0FFF80
00C180
FFC180
C0FF80
C0C000
C1F800
FFF800
ENDCHAR
STARTCHAR 00E7
ENCODING 231
SWIDTH 792 0
DWIDTH 11 0
BBX 9 11 1 -3
BITMAP
7F80
FF80
C000
C000
C000
C000
FF80
7F80
0800
1800
1800
ENDCHAR
STARTCHAR 00E8
ENCODING 232
SWIDTH 792 0
DWIDTH 11 0
BBX 10 12 1 0
BITMAP
3000
1800
0C00
0000
3F00
FF80
C1C0
C1C0
FFC0
C000
FC00
7C00
ENDCHAR
STARTCHAR 00E9
ENCODING 233
SWIDTH 792 0
DWIDTH 11 0
BBX 10 12 1 0
BITMAP
0600
0C00
0800
0000
3F00
FF80
C1C0
C1C0
FFC0
C000
FC00
7C00
ENDCHAR
STARTCHAR 00EA
ENCODING 234
SWIDTH 792 0
DWIDTH 11 0
BBX 10 12 1 0
BITMAP
1C00
1C00
3600
6300
3F00
FF80
C1C0
C1C0
FFC0
C000
FC00
7C00
ENDCHAR
STARTCHAR 00EB
ENCODING 235
SWIDTH 792 0
DWIDTH 11 0
BBX 10 10 1 0
BITMAP
3600
3600
3F00
FF80
C1C0
C1C0
FFC0
C000
FC00
7C00
ENDCHAR
STARTCHAR 00EC
ENCODING 236
SWIDTH 288 0
DWIDTH 4 0
BBX 3 12 0 0
BITMAP
C0
C0
60
00
00
60
60
60
60
60
60
60
ENDCHAR
STARTCHAR 00ED
ENCODING 237
SWIDTH 288 0
DWIDTH 4 0
BBX 3 12 1 0
BITMAP
60
C0
C0
00
00
C0
C0
C0
C0
C0
C0
C0
ENDCHAR
STARTCHAR 00EE
ENCODING 238
SWIDTH 432 0
DWIDTH 6 0
BBX 6 12 0 0
BITMAP
30
78
D8
CC
00
30
30
30
30
30
30
30
ENDCHAR
STARTCHAR 00EF
ENCODING 239
SWIDTH 288 0
DWIDTH 4 0
BBX 6 10 -1 0
BITMAP
CC
CC
00
30
30
30
30
30
30
30
ENDCHAR
STARTCHAR 00F0
ENCODING 240
SWIDTH 792 0
DWIDTH 11 0
BBX 11 11 1 0
BITMAP
0060
3FC0
3FC0
00C0
3FC0
FFC0
C0C0
C0C0
C1C0
FF80
7F80
ENDCHAR
STARTCHAR 00F1
ENCODING 241
SWIDTH 792 0
DWIDTH 11 0
BBX 10 10 1 0
BITMAP
7F00
0000
7F00
FF80
C180
C1C0
C1C0
C1C0
C1C0
C1C0
ENDCHAR
STARTCHAR 00F2
ENCODING 242
SWIDTH 792 0
DWIDTH 11 0
BBX 9 12 1 0
BITMAP
3000
1800
0C00
0000
7F00
FF80
C180
C180
C180
C180
FF80
7F00
ENDCHAR
STARTCHAR 00F3
ENCODING 243
SWIDTH 792 0
DWIDTH 11 0
BBX 9 12 1 0
BITMAP
0600
0C00
0800
0000
7F00
FF80
C180
C180
C180
C180
FF80
7F00
ENDCHAR
STARTCHAR 00F4
ENCODING 244
SWIDTH 792 0
DWIDTH 11 0
BBX 9 12 1 0
BITMAP
1C00
1C00
3600
6300
7F00
FF80
C180
C180
C180
C180
FF80
7F00
ENDCHAR
STARTCHAR 00F5
ENCODING 245
SWIDTH 792 0
DWIDTH 11 0
BBX 9 10 1 0
BITMAP
7F00
0000
7F00
FF80
C180
C180
C180
C180
FF80
7F00
ENDCHAR
STARTCHAR 00F6
ENCODING 246
SWIDTH 792 0
DWIDTH 11 0
BBX 9 10 1 0
BITMAP
3600
3600
7F00
FF80
C180
C180
C180
C180
FF80
7F00
ENDCHAR
STARTCHAR 00F7
ENCODING 247
SWIDTH 576 0
DWIDTH 8 0
BBX 6 7 1 1
BITMAP
30
30
00
FC
00
30
30
ENDCHAR
STARTCHAR 00F8
ENCODING 248
SWIDTH 792 0
DWIDTH 11 0
BBX 9 10 1 -1
BITMAP
0180
7F00
FF80
C780
CD80
D980
D980
FF80
7F00
C000
ENDCHAR
STARTCHAR 00F9
ENCODING 249
SWIDTH 792 0
DWIDTH 11 0
BBX 9 12 1 0
BITMAP
3000
1800
0C00
0000
C180
C180
C180
C180
C180
C180
FF80
7F00
ENDCHAR
STARTCHAR 00FA
ENCODING 250
SWIDTH 792 0
DWIDTH 11 0
BBX 9 12 1 0
BITMAP
0600
0C00
0800
0000
C180
C180
C180
C180
C180
C180
FF80
7F00
ENDCHAR
STARTCHAR 00FB
ENCODING 251
SWIDTH 792 0
DWIDTH 11 0
BBX 9 12 1 0
BITMAP
1C00
1C00
3600
6300
C180
C180
C180
C180
C180
C180
FF80
7F00
ENDCHAR
STARTCHAR 00FC
ENCODING 252
SWIDTH 792 0
DWIDTH 11 0
BBX 9 10 1 0
BITMAP
3600
3600
C180
C180
C180
C180
C180
C180
FF80
7F00
ENDCHAR
STARTCHAR 00FD
ENCODING 253
SWIDTH 864 0
DWIDTH 12 0
BBX 10 15 1 -3
BITMAP
0600
0C00
0C00
0000
C0C0
C0C0
C0C0
C0C0
C0C0
FFC0
7FC0
00C0
00C0
0FC0
0F80
ENDCHAR
STARTCHAR 00FE
ENCODING 254
SWIDTH 792 0
DWIDTH 11 0
BBX 10 13 1 -3
BITMAP
C000
C000
FF00
FF80
C1C0
C0C0
C0C0
C0C0
FF80
FF80
C000
C000
C000
ENDCHAR
STARTCHAR 00FF
ENCODING 255
SWIDTH 864 0
DWIDTH 12 0
BBX 10 13 1 -3
BITMAP
3300
3300
C0C0
C0C0
C0C0
C0C0
C0C0
FFC0
7FC0
00C0
00C0
0FC0
0F80
ENDCHAR
STARTCHAR 0100
ENCODING 256
SWIDTH 1008 0
DWIDTH 14 0
BBX 14 13 0 0
BITMAP
1FE0
0000
0000
0300
0780
07C0
0CC0
1C60
1870
3FF0
3FF8
6018
E00C
ENDCHAR
STARTCHAR 0101
ENCODING 257
SWIDTH 864 0
DWIDTH 12 0
BBX 10 10 1 0
BITMAP
3F80
0000
0000
0F80
00C0
FFC0
C0C0
C0C0
C1C0
FF80
ENDCHAR
STARTCHAR 0102
ENCODING 258
SWIDTH 1008 0
DWIDTH 14 0
BBX 14 14 0 0
BITMAP
0C40
0C40
07C0
0000
0300
0780
07C0
0CC0
1C60
1870
3FF0
3FF8
6018
E00C
ENDCHAR
STARTCHAR 0103
ENCODING 259
SWIDTH 864 0
DWIDTH 12 0
BBX 10 12 1 0
BITMAP
3100
3100
1F00
0000
0000
0F80
00C0
FFC0
C0C0
C0C0
C1C0
FF80
ENDCHAR
STARTCHAR 0104
ENCODING 260
SWIDTH 1008 0
DWIDTH 14 0
BBX 15 13 0 -3
BITMAP
0300
0780
07C0
0CC0
1C60
1870
3FF0
3FF8
6018
E00C
0018
0018
001E
ENDCHAR
STARTCHAR 0105
ENCODING 261
SWIDTH 864 0
DWIDTH 12 0
BBX 10 10 1 -3
BITMAP
0F80
00C0
FFC0
C0C0
C0C0
C1C0
FF80
0800
1800
1E00
ENDCHAR
STARTCHAR 0106
ENCODING 262
SWIDTH 792 0
DWIDTH 11 0
BBX 10 14 1 0
BITMAP
0600
0C00
0C00
0000
7FC0
FFC0
C000
C000
C000
C000
C000
C000
FFC0
7FC0
ENDCHAR
STARTCHAR 0107
ENCODING 263
SWIDTH 792 0
DWIDTH 11 0
BBX 9 12 1 0
BITMAP
0E00
0C00
1800
0000
7F80
FF80
C000
C000
C000
C000
FF80
7F80
ENDCHAR
STARTCHAR 010A
ENCODING 266
SWIDTH 792 0
DWIDTH 11 0
BBX 10 12 1 0
BITMAP
0C00
0C00
7FC0
FFC0
C000
C000
C000
C000
C000
C000
FFC0
7FC0
ENDCHAR
STARTCHAR 010B
ENCODING 267
SWIDTH 792 0
DWIDTH 11 0
BBX 9 10 1 0
BITMAP
0C00
0C00
7F80
FF80
C000
C000
C000
C000
FF80
7F80
ENDCHAR
STARTCHAR 010C
ENCODING 268
SWIDTH 792 0
DWIDTH 11 0
BBX 10 14 1 0
BITMAP
3300
1B00
1E00
0C00
7FC0
FFC0
C000
C000
C000
C000
C000
C000
FFC0
7FC0
ENDCHAR
STARTCHAR 010D
ENCODING 269
SWIDTH 792 0
DWIDTH 11 0
BBX 9 12 1 0
BITMAP
6300
3600
1E00
0C00
7F80
FF80
C000
C000
C000
C000
FF80
7F80
ENDCHAR
STARTCHAR 010E
ENCODING 270
SWIDTH 936 0
DWIDTH 13 0
BBX 11 14 1 0
BITMAP
3300
1B00
1E00
0C00
FFC0
FFE0
C060
C060
C060
C060
C060
C060
FFE0
FFC0
ENDCHAR
STARTCHAR 010F
ENCODING 271
SWIDTH 1008 0
DWIDTH 14 0
BBX 13 10 1 0
BITMAP
00D8
00D0
7FF0
FFC0
C0C0
C0C0
C0C0
C1C0
FF80
7F80
ENDCHAR
STARTCHAR 0110
ENCODING 272
SWIDTH 936 0
DWIDTH 13 0
BBX 12 10 0 0
BITMAP
7FE0
7FF0
6030
6030
FE30
FE30
6030
6030
7FF0
7FE0
ENDCHAR
STARTCHAR 0111
ENCODING 273
SWIDTH 792 0
DWIDTH 11 0
BBX 10 11 1 0
BITMAP
00C0
1FC0
00C0
7FC0
FFC0
C0C0
C0C0
C0C0
C1C0
FF80
7F80
ENDCHAR
STARTCHAR 0112
ENCODING 274
SWIDTH 864 0
DWIDTH 12 0
BBX 10 13 1 0
BITMAP
7F80
0000
0000
7C00
FC00
C000
C000
FFC0
FFC0
C000
C000
FFC0
7FC0
ENDCHAR
STARTCHAR 0113
ENCODING 275
SWIDTH 792 0
DWIDTH 11 0
BBX 10 10 1 0
BITMAP
7F00
0000
3F00
FF80
C1C0
C1C0
FFC0
C000
FC00
7C00
ENDCHAR
STARTCHAR 0114
ENCODING 276
SWIDTH 864 0
DWIDTH 12 0
BBX 10 14 1 0
BITMAP
3100
3300
1F00
0000
7C00
FC00
C000
C000
FFC0
FFC0
C000
C000
FFC0
7FC0
ENDCHAR
STARTCHAR 0115
ENCODING 277
SWIDTH 792 0
DWIDTH 11 0
BBX 10 12 1 0
BITMAP
2300
2300
3E00
0000
3F00
FF80
C1C0
C1C0
FFC0
C000
FC00
7C00
ENDCHAR
STARTCHAR 0116
ENCODING 278
SWIDTH 864 0
DWIDTH 12 0
BBX 10 12 1 0
BITMAP
0C00
0C00
7C00
FC00
C000
C000
FFC0
FFC0
C000
C000
FFC0
7FC0
ENDCHAR
STARTCHAR 0117
ENCODING 279
SWIDTH 792 0
DWIDTH 11 0
BBX 10 10 1 0
BITMAP
0C00
0C00
3F00
FF80
C1C0
C1C0
FFC0
C000
FC00
7C00
ENDCHAR
STARTCHAR 0118
ENCODING 280
SWIDTH 864 0
DWIDTH 12 0
BBX 11 13 1 -3
BITMAP
7C00
FC00
C000
C000
FFC0
FFC0
C000
C000
FFC0
7FC0
0100
0100
01E0
ENDCHAR
STARTCHAR 0119
ENCODING 281
SWIDTH 792 0
DWIDTH 11 0
BBX 10 11 1 -3
BITMAP
3F00
FF80
C1C0
C1C0
FFC0
C000
FC00
7C00
3000
3000
3C00
ENDCHAR
STARTCHAR 011A
ENCODING 282
SWIDTH 864 0
DWIDTH 12 0
BBX 10 14 1 0
BITMAP
3300
1B00
1E00
0C00
7C00
FC00
C000
C000
FFC0
FFC0
C000
C000
FFC0
7FC0
ENDCHAR
STARTCHAR 011B
ENCODING 283
SWIDTH 792 0
DWIDTH 11 0
BBX 10 12 1 0
BITMAP
6300
3600
1C00
1C00
3F00
FF80
C1C0
C1C0
FFC0
C000
FC00
7C00
ENDCHAR
STARTCHAR 011E
ENCODING 286
SWIDTH 864 0
DWIDTH 12 0
BBX 11 14 1 0
BITMAP
3100
3100
1F00
0000
7C00
FC00
C000
C000
C060
C060
C060
C0E0
FFC0
7FC0
ENDCHAR
STARTCHAR 011F
ENCODING 287
SWIDTH 792 0
DWIDTH 11 0
BBX 10 15 1 -3
BITMAP
2300
2300
3E00
0000
7F00
FF80
C1C0
C0C0
C0C0
FFC0
7FC0
00C0
00C0
0F80
0F80
ENDCHAR
STARTCHAR 0120
ENCODING 288
SWIDTH 864 0
DWIDTH 12 0
BBX 11 12 1 0
BITMAP
0C00
0C00
7C00
FC00
C000
C000
C060
C060
C060
C0E0
FFC0
7FC0
ENDCHAR
STARTCHAR 0121
ENCODING 289
SWIDTH 792 0
DWIDTH 11 0
BBX 10 13 1 -3
BITMAP
0C00
0C00
7F00
FF80
C1C0
C0C0
C0C0
FFC0
7FC0
00C0
00C0
0F80
0F80
ENDCHAR
STARTCHAR 0122
ENCODING 290
SWIDTH 864 0
DWIDTH 12 0
BBX 11 13 1 -3
BITMAP
7C00
FC00
C000
C000
C060
C060
C060
C0E0
FFC0
7FC0
0C00
0C00
0C00
ENDCHAR
STARTCHAR 0123
ENCODING 291
SWIDTH 792 0
DWIDTH 11 0
BBX 10 14 1 -3
BITMAP
0C00
0C00
0C00
7F00
FF80
C1C0
C0C0
C0C0
FFC0
7FC0
00C0
00C0
0F80
0F80
ENDCHAR
STARTCHAR 0126
ENCODING 294
SWIDTH 936 0
DWIDTH 13 0
BBX 11 10 1 0
BITMAP
C060
C060
FFE0
C060
FFE0
FFE0
C060
C060
C060
C060
ENDCHAR
STARTCHAR 0127
ENCODING 295
SWIDTH 792 0
DWIDTH 11 0
BBX 11 11 0 0
BITMAP
6000
FF00
6000
7FC0
7FC0
6060
6060
6060
6060
6060
6060
ENDCHAR
STARTCHAR 012A
ENCODING 298
SWIDTH 288 0
DWIDTH 4 0
BBX 8 13 -2 0
BITMAP
FF
00
00
18
18
18
18
18
18
18
18
18
18
ENDCHAR
STARTCHAR 012B
ENCODING 299
SWIDTH 432 0
DWIDTH 6 0
BBX 8 10 -1 0
BITMAP
FF
00
00
18
18
18
18
18
18
18
ENDCHAR
STARTCHAR 012C
ENCODING 300
SWIDTH 288 0
DWIDTH 4 0
BBX 6 14 -1 0
BITMAP
8C
CC
F8
00
30
30
30
30
30
30
30
30
30
30
ENDCHAR
STARTCHAR 012D
ENCODING 301
SWIDTH 288 0
DWIDTH 4 0
BBX 6 12 -1 0
BITMAP
C4
CC
7C
00
00
30
30
30
30
30
30
30
ENDCHAR
STARTCHAR 012E
ENCODING 302
SWIDTH 288 0
DWIDTH 4 0
BBX 4 13 -1 -3
BITMAP
30
30
30
30
30
30
30
30
30
30
40
C0
70
ENDCHAR
STARTCHAR 012F
ENCODING 303
SWIDTH 288 0
DWIDTH 4 0
BBX 4 13 -1 -3
BITMAP
30
30
00
30
30
30
30
30
30
30
40
C0
70
ENDCHAR
STARTCHAR 0130
ENCODING 304
SWIDTH 288 0
DWIDTH 4 0
BBX 2 12 1 0
BITMAP
C0
C0
C0
C0
C0
C0
C0
C0
C0
C0
C0
C0
ENDCHAR
STARTCHAR 0131
ENCODING 305
SWIDTH 288 0
DWIDTH 4 0
BBX 2 7 1 0
BITMAP
C0
C0
C0
C0
C0
C0
C0
ENDCHAR
STARTCHAR 0132
ENCODING 306
SWIDTH 792 0
DWIDTH 11 0
BBX 9 10 1 0
BITMAP
C180
C180
C180
C180
C180
C180
C180
C180
DF80
DF00
ENDCHAR
STARTCHAR 0133
ENCODING 307
SWIDTH 576 0
DWIDTH 8 0
BBX 6 13 1 -3
BITMAP
CC
CC
00
CC
CC
CC
CC
CC
CC
CC
0C
3C
38
ENDCHAR
STARTCHAR 0136
ENCODING 310
SWIDTH 792 0
DWIDTH 11 0
BBX 10 13 1 -3
BITMAP
C180
C700
CE00
DC00
F800
F800
DC00
CE00
C300
C1C0
0C00
0800
0800
ENDCHAR
STARTCHAR 0137
ENCODING 311
SWIDTH 720 0
DWIDTH 10 0
BBX 9 13 1 -3
BITMAP
C000
C000
C380
C700
CC00
F800
F800
DC00
CE00
C300
1800
1800
1800
ENDCHAR
STARTCHAR 0139
ENCODING 313
SWIDTH 720 0
DWIDTH 10 0
BBX 9 14 1 0
BITMAP
6000
C000
C000
0000
C000
C000
C000
C000
C000
C000
C000
C000
FF80
7F80
ENDCHAR
STARTCHAR 013A
ENCODING 314
SWIDTH 288 0
DWIDTH 4 0
BBX 3 13 1 0
BITMAP
60
C0
C0
C0
C0
C0
C0
C0
C0
C0
C0
C0
C0
ENDCHAR
STARTCHAR 013B
ENCODING 315
SWIDTH 720 0
DWIDTH 10 0
BBX 9 13 1 -3
BITMAP
C000
C000
C000
C000
C000
C000
C000
C000
FF80
7F80
0C00
0800
0800
ENDCHAR
STARTCHAR 013C
ENCODING 316
SWIDTH 288 0
DWIDTH 4 0
BBX 2 13 1 -3
BITMAP
C0
C0
C0
C0
C0
C0
C0
C0
C0
C0
C0
80
80
ENDCHAR
STARTCHAR 013D
ENCODING 317
SWIDTH 720 0
DWIDTH 10 0
BBX 9 10 1 0
BITMAP
C400
C400
CC00
C000
C000
C000
C000
C000
FF80
7F80
ENDCHAR
STARTCHAR 013E
ENCODING 318
SWIDTH 432 0
DWIDTH 6 0
BBX 5 10 1 0
BITMAP
D8
D8
D0
C0
C0
C0
C0
C0
C0
C0
ENDCHAR
STARTCHAR 013F
ENCODING 319
SWIDTH 720 0
DWIDTH 10 0
BBX 9 10 1 0
BITMAP
C000
C000
C000
CC00
CC00
C000
C000
C000
FF80
7F80
ENDCHAR
STARTCHAR 0140
ENCODING 320
SWIDTH 432 0
DWIDTH 6 0
BBX 5 10 1 0
BITMAP
C0
C0
C0
C0
D8
D8
C0
C0
C0
C0
ENDCHAR
STARTCHAR 0141
ENCODING 321
SWIDTH 792 0
DWIDTH 11 0
BBX 11 10 0 0
BITMAP
6000
6300
FF00
F800
6000
6000
6000
6000
7FE0
3FE0
ENDCHAR
STARTCHAR 0142
ENCODING 322
SWIDTH 288 0
DWIDTH 4 0
BBX 4 10 0 0
BITMAP
60
60
70
F0
60
60
60
60
60
60
ENDCHAR
STARTCHAR 0143
ENCODING 323
SWIDTH 936 0
DWIDTH 13 0
BBX 11 14 1 0
BITMAP
0300
0600
0C00
0000
C060
E060
F060
F860
DC60
CE60
C760
C3E0
C1E0
C0E0
ENDCHAR
STARTCHAR 0144
ENCODING 324
SWIDTH 792 0
DWIDTH 11 0
BBX 10 12 1 0
BITMAP
0600
0C00
0800
0000
7F00
FF80
C180
C1C0
C1C0
C1C0
C1C0
C1C0
ENDCHAR
STARTCHAR 0145
ENCODING 325
SWIDTH 936 0
DWIDTH 13 0
BBX 11 13 1 -3
BITMAP
C060
E060
F060
F860
DC60
CE60
C760
C3E0
C1E0
C0E0
0C00
0C00
0C00
ENDCHAR
STARTCHAR 0146
ENCODING 326
SWIDTH 792 0
DWIDTH 11 0
BBX 10 11 1 -3
BITMAP
7F00
FF80
C180
C1C0
C1C0
C1C0
C1C0
C1C0
0C00
0800
0800
ENDCHAR
STARTCHAR 0147
ENCODING 327
SWIDTH 936 0
DWIDTH 13 0
BBX 11 14 1 0
BITMAP
3180
1B00
1E00
0C00
C060
E060
F060
F860
DC60
CE60
C760
C3E0
C1E0
C0E0
ENDCHAR
STARTCHAR 0148
ENCODING 328
SWIDTH 792 0
DWIDTH 11 0
BBX 10 12 1 0
BITMAP
6300
3600
1C00
0C00
7F00
FF80
C180
C1C0
C1C0
C1C0
C1C0
C1C0
ENDCHAR
STARTCHAR 014A
ENCODING 330
SWIDTH 936 0
DWIDTH 13 0
BBX 11 13 1 -3
BITMAP
C060
E060
F060
F860
DC60
CE60
C760
C3E0
C1E0
C0E0
0060
01E0
01C0
ENDCHAR
STARTCHAR 014B
ENCODING 331
SWIDTH 792 0
DWIDTH 11 0
BBX 10 11 1 -3
BITMAP
7F00
FF80
C180
C1C0
C1C0
C1C0
C1C0
C1C0
01C0
0380
0380
ENDCHAR
STARTCHAR 014C
ENCODING 332
SWIDTH 864 0
DWIDTH 12 0
BBX 11 13 1 0
BITMAP
7F80
0000
0000
7F80
FFC0
C0E0
C0E0
C0E0
C0E0
C0E0
C0E0
FFC0
7F80
ENDCHAR
STARTCHAR 014D
ENCODING 333
SWIDTH 792 0
DWIDTH 11 0
BBX 9 10 1 0
BITMAP
7F00
0000
7F00
FF80
C180
C180
C180
C180
FF80
7F00
ENDCHAR
STARTCHAR 014E
ENCODING 334
SWIDTH 864 0
DWIDTH 12 0
BBX 11 14 1 0
BITMAP
3100
3300
1F00
0000
7F80
FFC0
C0E0
C0E0
C0E0
C0E0
C0E0
C0E0
FFC0
7F80
ENDCHAR
STARTCHAR 014F
ENCODING 335
SWIDTH 792 0
DWIDTH 11 0
BBX 9 12 1 0
BITMAP
2300
2300
3E00
0000
7F00
FF80
C180
C180
C180
C180
FF80
7F00
ENDCHAR
STARTCHAR 0150
ENCODING 336
SWIDTH 864 0
DWIDTH 12 0
BBX 11 14 1 0
BITMAP
1D80
1980
3300
0000
7F80
FFC0
C0E0
C0E0
C0E0
C0E0
C0E0
C0E0
FFC0
7F80
ENDCHAR
STARTCHAR 0151
ENCODING 337
SWIDTH 792 0
DWIDTH 11 0
BBX 9 12 1 0
BITMAP
1980
3300
3200
0000
7F00
FF80
C180
C180
C180
C180
FF80
7F00
ENDCHAR
STARTCHAR 0152
ENCODING 338
SWIDTH 1440 0
DWIDTH 20 0
BBX 18 10 1 0
BITMAP
7FFC00
FFFC00
C0E000
C0C000
C0FFC0
C0FFC0
C0C000
C0E000
FFFFC0
7FFFC0
ENDCHAR
STARTCHAR 0153
ENCODING 339
SWIDTH 1368 0
DWIDTH 19 0
BBX 17 8 1 0
BITMAP
7F7F00
FFFF80
C18180
C18180
C1FF80
C18000
FFF800
7FF800
ENDCHAR
STARTCHAR 0154
ENCODING 340
SWIDTH 936 0
DWIDTH 13 0
BBX 11 14 1 0
BITMAP
0700
0600
0C00
0000
FFC0
FFE0
C060
C060
C060
FFE0
FF80
CE00
C780
C1C0
ENDCHAR
STARTCHAR 0155
ENCODING 341
SWIDTH 432 0
DWIDTH 6 0
BBX 5 12 1 0
BITMAP
18
30
20
00
38
F8
C0
C0
C0
C0
C0
C0
ENDCHAR
STARTCHAR 0156
ENCODING 342
SWIDTH 936 0
DWIDTH 13 0
BBX 11 13 1 -3
BITMAP
FFC0
FFE0
C060
C060
C060
FFE0
FF80
CE00
C780
C1C0
0C00
0C00
0C00
ENDCHAR
STARTCHAR 0157
ENCODING 343
SWIDTH 432 0
DWIDTH 6 0
BBX 5 11 1 -3
BITMAP
38
F8
C0
C0
C0
C0
C0
C0
C0
80
80
ENDCHAR
STARTCHAR 0158
ENCODING 344
SWIDTH 936 0
DWIDTH 13 0
BBX 11 14 1 0
BITMAP
3300
3B00
1E00
0C00
FFC0
FFE0
C060
C060
C060
FFE0
FF80
CE00
C780
C1C0
ENDCHAR
STARTCHAR 0159
ENCODING 345
SWIDTH 432 0
DWIDTH 6 0
BBX 7 12 0 0
BITMAP
C6
6C
38
38
1C
7C
60
60
60
60
60
60
ENDCHAR
STARTCHAR 015A
ENCODING 346
SWIDTH 792 0
DWIDTH 11 0
BBX 10 14 1 0
BITMAP
0600
0C00
0800
0000
F800
F800
C000
C000
FF80
7FC0
00C0
00C0
FFC0
FF80
ENDCHAR
STARTCHAR 015B
ENCODING 347
SWIDTH 720 0
DWIDTH 10 0
BBX 9 12 1 0
BITMAP
0C00
0C00
1800
0000
7800
F800
C000
C000
FF00
0180
FF80
FF00
ENDCHAR
STARTCHAR 015E
ENCODING 350
SWIDTH 792 0
DWIDTH 11 0
BBX 10 13 1 -3
BITMAP
F800
F800
C000
C000
FF80
7FC0
00C0
00C0
FFC0
FF80
0C00
0800
0800
ENDCHAR
STARTCHAR 015F
ENCODING 351
SWIDTH 720 0
DWIDTH 10 0
BBX 9 11 1 -3
BITMAP
7800
F800
C000
C000
FF00
0180
FF80
FF00
1800
1800
1800
ENDCHAR
STARTCHAR 0160
ENCODING 352
SWIDTH 792 0
DWIDTH 11 0
BBX 10 14 1 0
BITMAP
6300
3600
1C00
1C00
F800
F800
C000
C000
FF80
7FC0
00C0
00C0
FFC0
FF80
ENDCHAR
STARTCHAR 0161
ENCODING 353
SWIDTH 720 0
DWIDTH 10 0
BBX 9 12 1 0
BITMAP
6600
3600
3C00
1800
7800
F800
C000
C000
FF00
0180
FF80
FF00
ENDCHAR
STARTCHAR 0162
ENCODING 354
SWIDTH 792 0
DWIDTH 11 0
BBX 10 13 0 -3
BITMAP
FFC0
FFC0
0C00
0C00
0C00
0C00
0C00
0C00
0C00
0C00
0C00
0C00
0C00
ENDCHAR
STARTCHAR 0163
ENCODING 355
SWIDTH 432 0
DWIDTH 6 0
BBX 6 13 0 -3
BITMAP
60
60
FC
FC
60
60
60
60
60
60
60
60
60
ENDCHAR
STARTCHAR 0164
ENCODING 356
SWIDTH 792 0
DWIDTH 11 0
BBX 10 14 0 0
BITMAP
3180
1B00
1E00
0C00
FFC0
FFC0
0C00
0C00
0C00
0C00
0C00
0C00
0C00
0C00
ENDCHAR
STARTCHAR 0165
ENCODING 357
SWIDTH 576 0
DWIDTH 8 0
BBX 8 10 0 0
BITMAP
63
63
FF
FC
60
60
60
60
60
60
ENDCHAR
STARTCHAR 0166
ENCODING 358
SWIDTH 792 0
DWIDTH 11 0
BBX 10 10 0 0
BITMAP
FFC0
FFC0
0C00
0C00
3F00
3F00
0C00
0C00
0C00
0C00
ENDCHAR
STARTCHAR 0167
ENCODING 359
SWIDTH 432 0
DWIDTH 6 0
BBX 6 10 0 0
BITMAP
60
60
FC
FC
60
60
F8
F8
60
60
ENDCHAR
STARTCHAR 0168
ENCODING 360
SWIDTH 864 0
DWIDTH 12 0
BBX 11 13 1 0
BITMAP
7F80
0000
0000
C0E0
C0E0
C0E0
C0E0
C0E0
C0E0
C0E0
C0E0
FFC0
7F80
ENDCHAR
STARTCHAR 0169
ENCODING 361
SWIDTH 792 0
DWIDTH 11 0
BBX 9 10 1 0
BITMAP
7F00
0000
C180
C180
C180
C180
C180
C180
FF80
7F00
ENDCHAR
STARTCHAR 016A
ENCODING 362
SWIDTH 864 0
DWIDTH 12 0
BBX 11 13 1 0
BITMAP
7F80
0000
0000
C0E0
C0E0
C0E0
C0E0
C0E0
C0E0
C0E0
C0E0
FFC0
7F80
ENDCHAR
STARTCHAR 016B
ENCODING 363
SWIDTH 792 0
DWIDTH 11 0
BBX 9 10 1 0
BITMAP
7F00
0000
C180
C180
C180
C180
C180
C180
FF80
7F00
ENDCHAR
STARTCHAR 016C
ENCODING 364
SWIDTH 864 0
DWIDTH 12 0
BBX 11 14 1 0
BITMAP
3100
3300
1F00
0000
C0E0
C0E0
C0E0
C0E0
C0E0
C0E0
C0E0
C0E0
FFC0
7F80
ENDCHAR
STARTCHAR 016D
ENCODING 365
SWIDTH 792 0
DWIDTH 11 0
BBX 9 12 1 0
BITMAP
2300
2300
3E00
0000
C180
C180
C180
C180
C180
C180
FF80
7F00
ENDCHAR
STARTCHAR 016E
ENCODING 366
SWIDTH 864 0
DWIDTH 12 0
BBX 11 14 1 0
BITMAP
1E00
1100
1100
1E00
C0E0
C0E0
C0E0
C0E0
C0E0
C0E0
C0E0
C0E0
FFC0
7F80
ENDCHAR
STARTCHAR 016F
ENCODING 367
SWIDTH 792 0
DWIDTH 11 0
BBX 9 12 1 0
BITMAP
1E00
2200
2200
3E00
C180
C180
C180
C180
C180
C180
FF80
7F00
ENDCHAR
STARTCHAR 0170
ENCODING 368
SWIDTH 864 0
DWIDTH 12 0
BBX 11 14 1 0
BITMAP
1D80
1980
3300
0000
C0E0
C0E0
C0E0
C0E0
C0E0
C0E0
C0E0
C0E0
FFC0
7F80
ENDCHAR
STARTCHAR 0171
ENCODING 369
SWIDTH 792 0
DWIDTH 11 0
BBX 9 12 1 0
BITMAP
1980
3300
3200
0000
C180
C180
C180
C180
C180
C180
FF80
7F00
ENDCHAR
STARTCHAR 0172
ENCODING 370
SWIDTH 864 0
DWIDTH 12 0
BBX 11 13 1 -3
BITMAP
C0E0
C0E0
C0E0
C0E0
C0E0
C0E0
C0E0
C0E0
FFC0
7F80
0800
1800
0F00
ENDCHAR
STARTCHAR 0173
ENCODING 371
SWIDTH 792 0
DWIDTH 11 0
BBX 9 11 1 -3
BITMAP
C180
C180
C180
C180
C180
C180
FF80
7F00
1800
1800
1E00
ENDCHAR
STARTCHAR 0174
ENCODING 372
SWIDTH 1368 0
DWIDTH 19 0
BBX 18 14 0 0
BITMAP
00C000
01E000
01B000
031800
E0E0C0
60E0C0
61E180
31B180
33B380
3B1B00
1B1B00
1E1E00
0E0E00
0C0C00
ENDCHAR
STARTCHAR 0175
ENCODING 373
SWIDTH 1080 0
DWIDTH 15 0
BBX 15 12 0 0
BITMAP
0180
0380
06C0
0C60
C186
6386
63CC
36CC
3658
3C78
1C70
1830
ENDCHAR
STARTCHAR 0176
ENCODING 374
SWIDTH 936 0
DWIDTH 13 0
BBX 12 14 1 0
BITMAP
0600
0F00
1B00
3180
C070
60E0
39C0
1F80
0F00
0600
0600
0600
0600
0600
ENDCHAR
STARTCHAR 0177
ENCODING 375
SWIDTH 864 0
DWIDTH 12 0
BBX 10 15 1 -3
BITMAP
0C00
1E00
3600
2300
C0C0
C0C0
C0C0
C0C0
C0C0
FFC0
7FC0
00C0
00C0
0FC0
0F80
ENDCHAR
STARTCHAR 0178
ENCODING 376
SWIDTH 936 0
DWIDTH 13 0
BBX 12 12 1 0
BITMAP
1B00
1B00
C070
60E0
39C0
1F80
0F00
0600
0600
0600
0600
0600
ENDCHAR
STARTCHAR 0179
ENCODING 377
SWIDTH 864 0
DWIDTH 12 0
BBX 10 14 1 0
BITMAP
0600
0C00
0C00
0000
FFC0
FFC0
0380
0700
0E00
1C00
3800
7000
FFC0
FFC0
ENDCHAR
STARTCHAR 017A
ENCODING 378
SWIDTH 720 0
DWIDTH 10 0
BBX 8 12 1 0
BITMAP
0C
18
18
00
FE
FF
06
1C
38
70
FF
FF
ENDCHAR
STARTCHAR 017B
ENCODING 379
SWIDTH 864 0
DWIDTH 12 0
BBX 10 12 1 0
BITMAP
0C00
0C00
FFC0
FFC0
0380
0700
0E00
1C00
3800
7000
FFC0
FFC0
ENDCHAR
STARTCHAR 017C
ENCODING 380
SWIDTH 720 0
DWIDTH 10 0
BBX 8 10 1 0
BITMAP
18
18
FE
FF
06
1C
38
70
FF
FF
ENDCHAR
STARTCHAR 017D
ENCODING 381
SWIDTH 864 0
DWIDTH 12 0
BBX 10 14 1 0
BITMAP
3300
3600
1E00
0C00
FFC0
FFC0
0380
0700
0E00
1C00
3800
7000
FFC0
FFC0
ENDCHAR
STARTCHAR 017E
ENCODING 382
SWIDTH 720 0
DWIDTH 10 0
BBX 8 12 1 0
BITMAP
66
6C
3C
18
FE
FF
06
1C
38
70
FF
FF
ENDCHAR
STARTCHAR 0192
ENCODING 402
SWIDTH 576 0
DWIDTH 8 0
BBX 7 11 0 -1
BITMAP
06
0C
18
18
7E
18
10
10
30
30
E0
ENDCHAR
STARTCHAR 0218
ENCODING 536
SWIDTH 792 0
DWIDTH 11 0
BBX 10 13 1 -3
BITMAP
F800
F800
C000
C000
FF80
7FC0
00C0
00C0
FFC0
FF80
0C00
0800
0800
ENDCHAR
STARTCHAR 0219
ENCODING 537
SWIDTH 720 0
DWIDTH 10 0
BBX 9 11 1 -3
BITMAP
7800
F800
C000
C000
FF00
0180
FF80
FF00
1800
1800
1800
ENDCHAR
STARTCHAR 021A
ENCODING 538
SWIDTH 792 0
DWIDTH 11 0
BBX 10 13 0 -3
BITMAP
FFC0
FFC0
0C00
0C00
0C00
0C00
0C00
0C00
0C00
0C00
0C00
0C00
0C00
ENDCHAR
STARTCHAR 021B
ENCODING 539
SWIDTH 432 0
DWIDTH 6 0
BBX 6 13 0 -3
BITMAP
60
60
FC
FC
60
60
60
60
60
60
60
60
60
ENDCHAR
STARTCHAR 02C6
ENCODING 710
SWIDTH 648 0
DWIDTH 9 0
BBX 7 4 1 8
BITMAP
38
38
6C
C6
ENDCHAR
STARTCHAR 02C7
ENCODING 711
SWIDTH 648 0
DWIDTH 9 0
BBX 7 4 1 8
BITMAP
C6
6C
38
38
ENDCHAR
STARTCHAR 02D8
ENCODING 728
SWIDTH 576 0
DWIDTH 8 0
BBX 6 3 1 9
BITMAP
8C
8C
F8
ENDCHAR
STARTCHAR 02D9
ENCODING 729
SWIDTH 288 0
DWIDTH 4 0
BBX 2 2 1 8
BITMAP
C0
C0
ENDCHAR
STARTCHAR 02DA
ENCODING 730
SWIDTH 432 0
DWIDTH 6 0
BBX 5 4 1 8
BITMAP
F0
88
88
F0
ENDCHAR
STARTCHAR 02DB
ENCODING 731
SWIDTH 432 0
DWIDTH 6 0
BBX 4 3 1 -3
BITMAP
C0
C0
F0
ENDCHAR
STARTCHAR 02DC
ENCODING 732
SWIDTH 648 0
DWIDTH 9 0
BBX 7 1 1 9
BITMAP
FE
ENDCHAR
STARTCHAR 02DD
ENCODING 733
SWIDTH 648 0
DWIDTH 9 0
BBX 7 3 1 9
BITMAP
66
6C
CC
ENDCHAR
STARTCHAR 0394
ENCODING 916
SWIDTH 1008 0
DWIDTH 14 0
BBX 14 10 0 0
BITMAP
0300
0780
07C0
0EC0
1CE0
1870
3830
3038
7FF8
FFFC
ENDCHAR
STARTCHAR 039B
ENCODING 923
SWIDTH 1008 0
DWIDTH 14 0
BBX 14 10 0 0
BITMAP
0300
0780
07C0
0CC0
1CE0
1860
3870
3038
7018
E01C
ENDCHAR
STARTCHAR 03A9
ENCODING 937
SWIDTH 864 0
DWIDTH 12 0
BBX 11 10 1 0
BITMAP
7FC0
FFC0
C0E0
C0E0
C0E0
C0C0
C0C0
6180
E1E0
E1E0
ENDCHAR
STARTCHAR 03BC
ENCODING 956
SWIDTH 864 0
DWIDTH 12 0
BBX 10 11 1 -3
BITMAP
C0C0
C0C0
C0C0
C0C0
C0C0
C0C0
FF80
FF80
C000
C000
C000
ENDCHAR
STARTCHAR 03C0
ENCODING 960
SWIDTH 792 0
DWIDTH 11 0
BBX 10 8 1 0
BITMAP
FFC0
FFC0
C0C0
C0C0
C0C0
C0C0
C0C0
C0C0
ENDCHAR
STARTCHAR 1E80
ENCODING 7808
SWIDTH 1368 0
DWIDTH 19 0
BBX 18 14 0 0
BITMAP
018000
00C000
00C000
000000
E0E0C0
60E0C0
61E180
31B180
33B380
3B1B00
1B1B00
1E1E00
0E0E00
0C0C00
ENDCHAR
STARTCHAR 1E81
ENCODING 7809
SWIDTH 1080 0
DWIDTH 15 0
BBX 15 12 0 0
BITMAP
0600
0300
0180
0000
C186
6386
63CC
36CC
3658
3C78
1C70
1830
ENDCHAR
STARTCHAR 1E82
ENCODING 7810
SWIDTH 1368 0
DWIDTH 19 0
BBX 18 14 0 0
BITMAP
003000
006000
00C000
000000
E0E0C0
60E0C0
61E180
31B180
33B380
3B1B00
1B1B00
1E1E00
0E0E00
0C0C00
ENDCHAR
STARTCHAR 1E83
ENCODING 7811
SWIDTH 1080 0
DWIDTH 15 0
BBX 15 12 0 0
BITMAP
00C0
0180
0100
0000
C186
6386
63CC
36CC
3658
3C78
1C70
1830
ENDCHAR
STARTCHAR 1E84
ENCODING 7812
SWIDTH 1368 0
DWIDTH 19 0
BBX 18 12 0 0
BITMAP
01B000
01B000
E0E0C0
60E0C0
61E180
31B180
33B380
3B1B00
1B1B00
1E1E00
0E0E00
0C0C00
ENDCHAR
STARTCHAR 1E85
ENCODING 7813
SWIDTH 1080 0
DWIDTH 15 0
BBX 15 10 0 0
BITMAP
06C0
06C0
C186
6386
63CC
36CC
3658
3C78
1C70
1830
ENDCHAR
STARTCHAR 1EF2
ENCODING 7922
SWIDTH 936 0
DWIDTH 13 0
BBX 12 14 1 0
BITMAP
1800
0C00
0600
0000
C070
60E0
39C0
1F80
0F00
0600
0600
0600
0600
0600
ENDCHAR
STARTCHAR 1EF3
ENCODING 7923
SWIDTH 864 0
DWIDTH 12 0
BBX 10 15 1 -3
BITMAP
3800
1800
0C00
0000
C0C0
C0C0
C0C0
C0C0
C0C0
FFC0
7FC0
00C0
00C0
0FC0
0F80
ENDCHAR
STARTCHAR 2013
ENCODING 8211
SWIDTH 720 0
DWIDTH 10 0
BBX 9 2 0 3
BITMAP
FF80
FF80
ENDCHAR
STARTCHAR 2014
ENCODING 8212
SWIDTH 936 0
DWIDTH 13 0
BBX 13 2 0 3
BITMAP
FFF8
FFF8
ENDCHAR
STARTCHAR 2018
ENCODING 8216
SWIDTH 216 0
DWIDTH 3 0
BBX 2 3 1 7
BITMAP
C0
C0
C0
ENDCHAR
STARTCHAR 2019
ENCODING 8217
SWIDTH 216 0
DWIDTH 3 0
BBX 2 3 1 7
BITMAP
C0
80
80
ENDCHAR
STARTCHAR 201A
ENCODING 8218
SWIDTH 216 0
DWIDTH 3 0
BBX 2 3 1 -1
BITMAP
C0
80
80
ENDCHAR
STARTCHAR 201C
ENCODING 8220
SWIDTH 432 0
DWIDTH 6 0
BBX 5 3 1 7
BITMAP
D8
D8
D8
ENDCHAR
STARTCHAR 201D
ENCODING 8221
SWIDTH 432 0
DWIDTH 6 0
BBX 5 3 1 7
BITMAP
D8
98
90
ENDCHAR
STARTCHAR 201E
ENCODING 8222
SWIDTH 432 0
DWIDTH 6 0
BBX 5 3 1 -1
BITMAP
D8
98
90
ENDCHAR
STARTCHAR 2020
ENCODING 8224
SWIDTH 432 0
DWIDTH 6 0
BBX 6 10 0 0
BITMAP
30
30
30
FC
30
30
30
30
30
30
ENDCHAR
STARTCHAR 2021
ENCODING 8225
SWIDTH 432 0
DWIDTH 6 0
BBX 6 10 0 0
BITMAP
30
30
30
FC
30
30
FC
30
30
30
ENDCHAR
STARTCHAR 2022
ENCODING 8226
SWIDTH 360 0
DWIDTH 5 0
BBX 4 4 1 3
BITMAP
E0
F0
F0
E0
ENDCHAR
STARTCHAR 2026
ENCODING 8230
SWIDTH 1368 0
DWIDTH 19 0
BBX 17 2 1 0
BITMAP
C18180
C18180
ENDCHAR
STARTCHAR 2030
ENCODING 8240
SWIDTH 1440 0
DWIDTH 20 0
BBX 18 10 1 0
BITMAP
F8C000
898000
890000
8B0000
FE0000
05F7C0
0D1440
191440
111440
31F7C0
ENDCHAR
STARTCHAR 2039
ENCODING 8249
SWIDTH 288 0
DWIDTH 4 0
BBX 4 7 0 1
BITMAP
10
30
60
C0
60
30
10
ENDCHAR
STARTCHAR 203A
ENCODING 8250
SWIDTH 288 0
DWIDTH 4 0
BBX 4 7 0 1
BITMAP
80
C0
60
30
60
C0
80
ENDCHAR
STARTCHAR 2044
ENCODING 8260
SWIDTH 288 0
DWIDTH 4 0
BBX 8 10 -2 0
BITMAP
03
02
06
0C
08
18
30
20
60
C0
ENDCHAR
STARTCHAR 2070
ENCODING 8304
SWIDTH 504 0
DWIDTH 7 0
BBX 5 5 1 5
BITMAP
F8
88
88
88
F8
ENDCHAR
STARTCHAR 2074
ENCODING 8308
SWIDTH 504 0
DWIDTH 7 0
BBX 5 5 1 5
BITMAP
88
88
88
F8
08
ENDCHAR
STARTCHAR 2075
ENCODING 8309
SWIDTH 504 0
DWIDTH 7 0
BBX 5 5 1 5
BITMAP
E0
80
F8
08
F8
ENDCHAR
STARTCHAR 2076
ENCODING 8310
SWIDTH 504 0
DWIDTH 7 0
BBX 6 5 1 5
BITMAP
E0
80
F8
8C
F8
ENDCHAR
STARTCHAR 2077
ENCODING 8311
SWIDTH 504 0
DWIDTH 7 0
BBX 6 5 0 5
BITMAP
FC
0C
18
10
20
ENDCHAR
STARTCHAR 2078
ENCODING 8312
SWIDTH 504 0
DWIDTH 7 0
BBX 5 5 1 5
BITMAP
F8
88
F8
88
F8
ENDCHAR
STARTCHAR 2079
ENCODING 8313
SWIDTH 504 0
DWIDTH 7 0
BBX 6 5 0 5
BITMAP
7C
C4
7C
04
1C
ENDCHAR
STARTCHAR 2080
ENCODING 8320
SWIDTH 504 0
DWIDTH 7 0
BBX 5 5 1 0
BITMAP
F8
88
88
88
F8
ENDCHAR
STARTCHAR 2081
ENCODING 8321
SWIDTH 216 0
DWIDTH 3 0
BBX 1 5 1 0
BITMAP
80
80
80
80
80
ENDCHAR
STARTCHAR 2082
ENCODING 8322
SWIDTH 504 0
DWIDTH 7 0
BBX 5 5 1 0
BITMAP
38
08
F8
80
F8
ENDCHAR
STARTCHAR 2083
ENCODING 8323
SWIDTH 504 0
DWIDTH 7 0
BBX 6 5 0 0
BITMAP
1C
04
7C
04
FC
ENDCHAR
STARTCHAR 2084
ENCODING 8324
SWIDTH 504 0
DWIDTH 7 0
BBX 5 5 1 0
BITMAP
88
88
88
F8
08
ENDCHAR
STARTCHAR 2085
ENCODING 8325
SWIDTH 504 0
DWIDTH 7 0
BBX 5 5 1 0
BITMAP
E0
80
F8
08
F8
ENDCHAR
STARTCHAR 2086
ENCODING 8326
SWIDTH 504 0
DWIDTH 7 0
BBX 6 5 1 0
BITMAP
E0
80
F8
8C
F8
ENDCHAR
STARTCHAR 2087
ENCODING 8327
SWIDTH 504 0
DWIDTH 7 0
BBX 6 5 0 0
BITMAP
FC
0C
18
10
20
ENDCHAR
STARTCHAR 2088
ENCODING 8328
SWIDTH 504 0
DWIDTH 7 0
BBX 5 5 1 0
BITMAP
F8
88
F8
88
F8
ENDCHAR
STARTCHAR 2089
ENCODING 8329
SWIDTH 504 0
DWIDTH 7 0
BBX 6 5 0 0
BITMAP
7C
C4
7C
04
1C
ENDCHAR
STARTCHAR 20AC
ENCODING 8364
SWIDTH 864 0
DWIDTH 12 0
BBX 11 10 0 0
BITMAP
1FE0
3FE0
7000
FFC0
6000
6000
FF80
7000
3FE0
3FE0
ENDCHAR
STARTCHAR 2117
ENCODING 8471
SWIDTH 864 0
DWIDTH 12 0
BBX 10 10 1 0
BITMAP
7F80
8040
BE40
A140
A140
BE40
A040
8040
8040
7F80
ENDCHAR
STARTCHAR 2122
ENCODING 8482
SWIDTH 1224 0
DWIDTH 17 0
BBX 16 6 0 4
BITMAP
FD81
1183
1147
1165
1139
1119
ENDCHAR
STARTCHAR 2153
ENCODING 8531
SWIDTH 864 0
DWIDTH 12 0
BBX 10 10 1 0
BITMAP
C300
C600
C400
CC00
D800
11C0
3040
67C0
4040
C7C0
ENDCHAR
STARTCHAR 2154
ENCODING 8532
SWIDTH 1080 0
DWIDTH 15 0
BBX 13 10 1 0
BITMAP
3860
08C0
F880
8180
FB00
0238
0608
0DF0
0808
19F8
ENDCHAR
STARTCHAR 215B
ENCODING 8539
SWIDTH 864 0
DWIDTH 12 0
BBX 11 10 1 0
BITMAP
C300
C600
C400
CC00
D800
17C0
3460
63C0
4460
C7E0
ENDCHAR
STARTCHAR 215C
ENCODING 8540
SWIDTH 1080 0
DWIDTH 15 0
BBX 13 10 1 0
BITMAP
3840
08C0
F980
0900
FB00
06F8
0488
0CF8
1988
10F8
ENDCHAR
STARTCHAR 215D
ENCODING 8541
SWIDTH 1080 0
DWIDTH 15 0
BBX 13 10 1 0
BITMAP
E040
80C0
F980
0D00
FB00
06F8
0488
0CF8
1888
10F8
ENDCHAR
STARTCHAR 215E
ENCODING 8542
SWIDTH 936 0
DWIDTH 13 0
BBX 12 10 1 0
BITMAP
FD80
0B00
1200
3600
6C00
0BE0
1A30
33E0
2230
63E0
ENDCHAR
STARTCHAR 2202
ENCODING 8706
SWIDTH 648 0
DWIDTH 9 0
BBX 9 10 0 0
BITMAP
0E00
0300
0180
0180
7C80
6380
C180
C100
6300
3E00
ENDCHAR
STARTCHAR 220F
ENCODING 8719
SWIDTH 648 0
DWIDTH 9 0
BBX 7 13 1 -3
BITMAP
FE
FE
C6
C6
C6
C6
C6
C6
C6
C6
C6
C6
C6
ENDCHAR
STARTCHAR 2211
ENCODING 8721
SWIDTH 648 0
DWIDTH 9 0
BBX 7 13 1 -3
BITMAP
FE
FE
60
60
30
18
18
18
30
60
60
FE
FE
ENDCHAR
STARTCHAR 2212
ENCODING 8722
SWIDTH 576 0
DWIDTH 8 0
BBX 6 1 1 4
BITMAP
FC
ENDCHAR
STARTCHAR 221A
ENCODING 8730
SWIDTH 576 0
DWIDTH 8 0
BBX 8 10 0 0
BITMAP
03
02
02
06
04
E4
2C
3C
38
18
ENDCHAR
STARTCHAR 221E
ENCODING 8734
SWIDTH 792 0
DWIDTH 11 0
BBX 9 5 1 2
BITMAP
F700
9880
8880
9880
F700
ENDCHAR
STARTCHAR 222B
ENCODING 8747
SWIDTH 360 0
DWIDTH 5 0
BBX 5 15 0 -3
BITMAP
18
30
20
20
20
20
20
20
20
20
20
20
20
20
E0
ENDCHAR
STARTCHAR 2248
ENCODING 8776
SWIDTH 576 0
DWIDTH 8 0
BBX 6 5 1 2
BITMAP
E4
9C
E0
FC
1C
ENDCHAR
STARTCHAR 2260
ENCODING 8800
SWIDTH 576 0
DWIDTH 8 0
BBX 8 10 0 0
BITMAP
03
02
06
7E
08
18
7E
20
60
C0
ENDCHAR
STARTCHAR 2264
ENCODING 8804
SWIDTH 576 0
DWIDTH 8 0
BBX 6 10 1 -1
BITMAP
04
0C
38
E0
C0
E0
38
0C
04
FC
ENDCHAR
STARTCHAR 2265
ENCODING 8805
SWIDTH 576 0
DWIDTH 8 0
BBX 6 10 1 -1
BITMAP
80
C0
70
1C
04
1C
70
C0
80
FC
ENDCHAR
STARTCHAR 25CA
ENCODING 9674
SWIDTH 576 0
DWIDTH 8 0
BBX 6 10 1 0
BITMAP
30
30
78
48
CC
CC
48
78
30
30
ENDCHAR
STARTCHAR FB01
ENCODING 64257
SWIDTH 720 0
DWIDTH 10 0
BBX 8 10 1 0
BITMAP
FB
C3
F8
FB
C3
C3
C3
C3
C3
C3
ENDCHAR
STARTCHAR FB02
ENCODING 64258
SWIDTH 720 0
DWIDTH 10 0
BBX 8 10 1 0
BITMAP
FB
C3
FB
FB
C3
C3
C3
C3
C3
C3
ENDCHAR
ENDFONT
